<svg enable-background="new 0 744.001 37.5 47.999" height="47.999" viewBox="0 744.001 37.5 47.999" width="37.5" xmlns="http://www.w3.org/2000/svg"><circle cx="18.719" cy="785.089" opacity=".2" r="6.911"/><circle cx="18.719" cy="784.346" fill="#fff" r="6.911"/><path d="m16.415 781.967h4.682v4.831h-4.682z" fill="#8b6c64"/><path d="m6.874 757.578c0-3.746 1.161-6.941 3.48-9.59 2.32-2.653 5.123-3.977 8.4-3.977 3.282 0 6.08 1.323 8.404 3.977 2.318 2.648 3.48 5.844 3.48 9.59 0 1.924-.255 3.505-.767 4.743l-8.443 20.508c-.248.581-.617 1.039-1.106 1.377-.486.338-1.005.502-1.567.502-.555 0-1.077-.164-1.563-.502-.488-.338-.85-.796-1.081-1.377l-8.469-20.508c-.512-1.238-.768-2.819-.768-4.743m7.681-4.797c-1.158 1.328-1.739 2.924-1.739 4.797 0 1.872.581 3.474 1.739 4.797 1.162 1.324 2.562 1.985 4.2 1.985 1.641 0 3.041-.661 4.203-1.985 1.159-1.323 1.739-2.925 1.739-4.797 0-1.873-.581-3.469-1.739-4.797-1.162-1.324-2.562-1.987-4.203-1.987-1.638 0-3.039.663-4.2 1.987" fill="#4484ec"/></svg>